<svg width="170" height="120" viewBox="0 0 170 120" fill="none" xmlns="http://www.w3.org/2000/svg">
  <g fill="#1F78B9">
    <circle cx="22" cy="18" r="14" />
    <circle cx="54" cy="18" r="12" />
    <circle cx="82" cy="18" r="10" />
    <circle cx="108" cy="18" r="8" />
    <circle cx="132" cy="18" r="6" />
    <circle cx="152" cy="18" r="4" />
    <circle cx="22" cy="46" r="14" />
    <circle cx="52" cy="46" r="12" />
    <circle cx="78" cy="46" r="10" />
    <circle cx="102" cy="46" r="8" />
    <circle cx="122" cy="46" r="6" />
    <circle cx="142" cy="46" r="5" />
    <circle cx="22" cy="74" r="11" />
    <circle cx="50" cy="74" r="10" />
    <circle cx="74" cy="74" r="9" />
    <circle cx="96" cy="74" r="8" />
    <circle cx="116" cy="74" r="6" />
    <circle cx="136" cy="74" r="5" />
    <circle cx="22" cy="98" r="9" />
    <circle cx="46" cy="98" r="8" />
    <circle cx="68" cy="98" r="7" />
    <circle cx="22" cy="118" r="6" />
    <circle cx="44" cy="118" r="5" />
    <circle cx="66" cy="118" r="4" />
  </g>
</svg>
